<svg xmlns="http://www.w3.org/2000/svg" width="1200" height="630" viewBox="0 0 1200 630">
  <defs>
    <radialGradient id="glow" cx="0" cy="0" r="1" gradientTransform="translate(960 90) rotate(0) scale(380)">
      <stop offset="0%" stop-color="#ff6a00" stop-opacity="0.45" />
      <stop offset="100%" stop-color="#ff6a00" stop-opacity="0" />
    </radialGradient>
    <radialGradient id="glow2" cx="0" cy="0" r="1" gradientTransform="translate(140 520) rotate(0) scale(300)">
      <stop offset="0%" stop-color="#c2410c" stop-opacity="0.3" />
      <stop offset="100%" stop-color="#c2410c" stop-opacity="0" />
    </radialGradient>
    <linearGradient id="title" x1="0" y1="0" x2="1" y2="0">
      <stop offset="0%" stop-color="#fafafa" />
      <stop offset="100%" stop-color="#ffb27d" />
    </linearGradient>
  </defs>

  <rect width="1200" height="630" fill="#140f0c" />
  <circle cx="960" cy="90" r="380" fill="url(#glow)" />
  <circle cx="140" cy="520" r="300" fill="url(#glow2)" />

  <g stroke="#241b15" stroke-width="1">
    <path d="M0 90H1200M0 180H1200M0 270H1200M0 360H1200M0 450H1200M0 540H1200" />
    <path d="M90 0V630M180 0V630M270 0V630M360 0V630M450 0V630M540 0V630M630 0V630M720 0V630M810 0V630M900 0V630M990 0V630M1080 0V630" />
  </g>

  <rect x="80" y="120" width="18" height="18" rx="5" fill="#ff6a00" />

  <text x="80" y="300" font-family="system-ui, -apple-system, Segoe UI, Roboto, sans-serif" font-size="92" font-weight="700" fill="url(#title)">Jose D. Romero</text>
  <text x="80" y="385" font-family="system-ui, -apple-system, Segoe UI, Roboto, sans-serif" font-size="40" font-weight="500" fill="#ff8a3d">Riwi's Coder - Web Developer</text>
  <text x="80" y="475" font-family="ui-monospace, SFMono-Regular, Menlo, monospace" font-size="30" fill="#b3a79e">its-jrdev.github.io/my-portfolio</text>
</svg>