<svg version="1.2" xmlns="http://www.w3.org/2000/svg" viewBox="0 0 3000 2194" width="3000" height="2194">
	<style>
		.s0 { fill: #a69076 } 
	</style>
	<path id="Path 0" fill-rule="evenodd" class="s0" d="m1084.5 0.11c1.1-0.05 3.35 0.73 5 1.74 2.25 1.39 6.17 7.69 15.69 25.25 6.97 12.87 19.59 37.35 28.03 54.4 8.45 17.05 19.32 40 24.17 51 4.84 11 9.22 20.45 9.73 21 0.61 0.66 9.79-0.27 27.15-2.75 14.43-2.06 31.85-4.41 38.73-5.24 6.88-0.82 21.05-2.4 31.5-3.52 10.45-1.12 29.13-2.91 41.5-3.98 12.38-1.07 32.85-2.62 45.5-3.45 12.65-0.83 33.58-2.08 46.5-2.78 14.87-0.81 50.12-1.27 96-1.27 45.58 0.01 81.23 0.48 96 1.28 12.92 0.7 33.85 1.94 46.5 2.75 12.65 0.82 31.1 2.16 41 2.98 9.9 0.83 27 2.41 38 3.53 11 1.11 29.45 3.15 41 4.52 11.55 1.37 31.13 3.86 43.5 5.53 12.38 1.68 22.95 2.85 23.5 2.6 0.55-0.24 3.22-5.56 5.94-11.82 2.71-6.26 9.97-22.18 16.11-35.38 6.15-13.2 16.47-34.57 22.94-47.5 6.47-12.92 15.15-29.8 19.28-37.5 4.14-7.7 8.35-15.24 9.37-16.75 1.03-1.51 3.1-3.22 4.61-3.78 2.11-0.8 6.14-0.43 17.25 1.55 7.97 1.42 27.1 5.07 42.5 8.11 15.4 3.04 37 7.5 48 9.9 11 2.4 30.58 6.86 43.5 9.92 12.93 3.05 35.65 8.75 50.5 12.65 14.85 3.9 36.45 9.78 48 13.07 11.55 3.28 31.13 9.05 43.5 12.83 12.38 3.77 35.1 11 50.5 16.05 15.4 5.06 39.03 13.15 52.5 17.97 13.47 4.83 31.93 11.56 41 14.96 9.07 3.4 28.43 10.92 43 16.72 14.57 5.8 38.88 15.85 54 22.32 15.13 6.48 34.47 14.91 58.5 25.66l12.8 18.91c7.03 10.4 21.72 32.86 32.62 49.91 10.91 17.05 24.92 39.33 31.12 49.5 6.21 10.18 17.13 28.4 24.26 40.5 7.14 12.1 18.93 32.58 26.22 45.5 7.28 12.93 19.63 35.43 27.43 50 7.81 14.58 22.85 43.83 33.41 65 10.56 21.17 24.9 50.88 31.86 66 6.96 15.13 17.45 38.52 23.32 52 5.87 13.48 15.74 36.88 21.92 52 6.19 15.13 16.09 40.33 22.01 56 5.92 15.67 14.25 38.4 18.52 50.5 4.26 12.1 12.06 35.05 17.32 51 5.26 15.95 13.21 41.15 17.68 56 4.47 14.85 11.44 39.15 15.5 54 4.06 14.85 10.09 37.8 13.39 51 3.3 13.2 8.53 35.03 11.62 48.5 3.08 13.47 8.72 40.03 12.52 59 3.81 18.97 9.4 49.13 12.44 67 3.03 17.88 7.52 46.67 9.98 64 2.45 17.33 5.61 41.17 7 53 1.4 11.83 3.66 32.75 5.02 46.5 1.37 13.75 3.4 36.7 4.51 51 1.11 14.3 2.68 37.7 3.49 52 0.8 14.3 1.99 41.75 2.63 61 0.75 22.4 0.96 58.76 0.59 101-0.33 36.3-1.05 75.22-1.61 86.5-0.57 11.28-1.5 28.6-2.07 38.5-0.58 9.9-1.72 27.22-2.54 38.5-0.82 11.28-2.39 30.85-3.49 43.5-1.11 12.65-2.44 24.13-2.96 25.5-0.63 1.65-10.71 9.49-29.73 23.12-15.83 11.34-37.33 26.44-47.78 33.55-10.45 7.12-28.68 19.26-40.5 26.98-11.82 7.73-30.5 19.68-41.5 26.56-11 6.88-27.87 17.24-37.5 23.03-9.62 5.78-28.07 16.57-41 23.97-12.93 7.4-31.37 17.75-41 23-9.62 5.25-25.15 13.59-34.5 18.54-9.35 4.95-28.47 14.74-42.5 21.76-14.03 7.01-33.6 16.57-43.5 21.23-9.9 4.67-27.45 12.77-39 18-11.55 5.23-30.22 13.46-41.5 18.28-11.28 4.82-31.07 13.05-44 18.29-12.93 5.23-33.18 13.21-45 17.71-11.82 4.51-29.6 11.11-39.5 14.67-9.9 3.57-28.8 10.2-42 14.76-13.2 4.55-34.8 11.71-48 15.91-13.2 4.2-25.57 7.65-27.5 7.66-2.67 0.01-4.23-0.76-6.59-3.25-1.7-1.8-7.82-10.02-13.61-18.27-5.79-8.25-18.61-27.15-28.49-42-9.88-14.85-23.82-36.45-30.99-48-7.17-11.55-18.21-29.78-24.53-40.5-6.32-10.72-17.11-29.62-23.98-42-6.87-12.37-15.7-28.58-19.62-36-5.11-9.66-7.14-14.57-7.16-17.25-0.02-2.57 0.68-4.47 2.22-6.05 1.24-1.26 6.75-4.02 12.25-6.13 5.5-2.1 17.2-6.75 26-10.32 8.8-3.57 22.3-9.19 30-12.5 7.7-3.31 21.88-9.61 31.5-14 9.63-4.39 29.65-14.05 44.5-21.47 14.85-7.42 32.4-16.43 39-20.03 6.6-3.59 19.2-10.59 28-15.54 8.8-4.96 16.84-9.74 17.86-10.62 1.03-0.87 2.29-2.71 2.8-4.09 0.59-1.59 0.56-3.41-0.09-5-0.55-1.37-5.4-5.87-10.77-10-5.36-4.12-16.4-12.79-24.53-19.25-9.96-7.93-15.58-11.75-17.27-11.75-1.37 0-8.01 2.52-14.75 5.59-6.74 3.07-20.57 9.19-30.75 13.59-10.18 4.4-27.72 11.75-39 16.33-11.28 4.57-31.97 12.59-46 17.82-14.03 5.23-36.3 13.17-49.5 17.64-13.2 4.46-32.55 10.77-43 14.02-10.45 3.24-28.67 8.65-40.5 12.02-11.83 3.36-33.65 9.21-48.5 12.98-14.85 3.77-38.25 9.34-52 12.38-13.75 3.04-35.8 7.55-49 10.01-13.2 2.46-32.33 5.84-42.5 7.5-10.17 1.66-28.17 4.38-40 6.03-11.83 1.65-31.62 4.13-44 5.5-12.37 1.38-30.6 3.2-40.5 4.05-9.9 0.85-28.12 2.2-40.5 3-12.37 0.81-38.47 1.99-58 2.62-20.92 0.68-49.67 0.89-70 0.5-18.97-0.36-43.5-1.1-54.5-1.64-11-0.54-29.67-1.65-41.5-2.47-11.83-0.82-32.97-2.64-47-4.04-14.03-1.41-35.85-3.88-48.5-5.51-12.65-1.62-33.12-4.55-45.5-6.5-12.37-1.96-33.53-5.57-47-8.03-13.47-2.46-35.97-6.97-50-10.02-14.03-3.05-36.3-8.23-49.5-11.5-13.2-3.28-32.33-8.23-42.5-11.01-10.17-2.79-27.27-7.68-38-10.89-10.73-3.2-27.37-8.35-37-11.42-9.62-3.08-26.73-8.8-38-12.7-11.27-3.9-29.27-10.37-40-14.37-10.73-4-29.62-11.33-42-16.29-12.37-4.95-30.37-12.38-40-16.51-9.62-4.13-23.12-10.03-30-13.11-6.87-3.08-13.51-5.59-14.75-5.59-1.35 0.01-8.15 4.71-17.02 11.77-8.13 6.46-19.17 15.13-24.54 19.25-6.04 4.65-10.12 8.55-10.72 10.25-0.58 1.65-0.61 3.65-0.08 5 0.48 1.24 1.72 2.97 2.75 3.85 1.02 0.88 10.41 6.33 20.86 12.12 10.45 5.78 29.58 16.05 42.5 22.81 12.92 6.75 33.85 17.22 46.5 23.25 12.65 6.03 32.67 15.24 44.5 20.48 11.83 5.23 33.2 14.19 47.5 19.91 16.78 6.7 26.64 11.17 27.79 12.61 1 1.24 1.77 3.77 1.73 5.72-0.04 2.4-3.1 9.34-9.69 22-5.3 10.17-13.22 25.03-17.6 33-4.38 7.97-11.46 20.58-15.73 28-4.27 7.42-12.24 20.93-17.71 30-5.47 9.07-13.92 22.8-18.78 30.5-4.87 7.7-14.98 23.22-22.48 34.5-7.49 11.28-17.4 25.9-22.02 32.5-4.61 6.6-11.28 16.05-14.82 21-3.54 4.95-7.85 10.47-9.56 12.27-2.39 2.49-3.96 3.26-6.63 3.24-1.92-0.01-13.85-3.33-26.5-7.38-12.65-4.05-32.9-10.74-45-14.89-12.1-4.14-31-10.78-42-14.75-11-3.98-30.46-11.23-43.25-16.11-12.79-4.88-34.39-13.43-48-18.98-13.61-5.56-32.4-13.4-41.75-17.43-9.35-4.03-23.98-10.44-32.5-14.25-8.52-3.81-23.6-10.69-33.5-15.28-9.9-4.6-34.87-16.79-55.5-27.09-20.62-10.31-47.85-24.32-60.5-31.13-12.65-6.82-32.45-17.72-44-24.22-11.55-6.5-35.4-20.45-53-31-17.6-10.54-42.12-25.61-54.5-33.48-12.37-7.87-35.77-23.21-52-34.09-16.22-10.87-38.95-26.46-50.5-34.64-11.55-8.17-25.35-18-30.67-21.83-5.4-3.88-10.36-8.29-11.23-9.96-1.07-2.07-2.17-10.71-3.56-28-1.11-13.75-2.46-31.08-3.01-38.5-0.54-7.42-1.66-25.42-2.48-40-0.82-14.58-2.03-39.78-2.68-56-0.65-16.22-1.18-57.62-1.18-92 0-34.37 0.53-75.1 1.18-90.5 0.65-15.4 1.85-39.47 2.67-53.5 0.82-14.03 1.94-31.58 2.5-39 0.56-7.42 1.69-21.15 2.5-30.5 0.82-9.35 2.62-28.03 4.01-41.5 1.39-13.47 4.07-36.65 5.95-51.5 1.88-14.85 4.59-34.87 6.02-44.5 1.42-9.62 4.12-26.95 5.99-38.5 1.87-11.55 5.46-32.25 7.99-46 2.53-13.75 7.08-36.92 10.11-51.5 3.04-14.58 7.54-35.28 10.01-46 2.48-10.72 7.65-32.1 11.5-47.5 3.85-15.4 10.37-40.15 14.5-55 4.12-14.85 11.04-38.7 15.37-53 4.34-14.3 11.56-37.25 16.06-51 4.49-13.75 12.81-38.05 18.49-54 5.67-15.95 13.98-38.67 18.46-50.5 4.49-11.83 13.24-34.1 19.47-49.5 6.22-15.4 16.58-40.15 23.03-55 6.45-14.85 17.62-39.83 24.84-55.5 7.21-15.67 20.81-44.02 30.22-63 9.41-18.98 21.97-43.73 27.91-55 5.94-11.27 16.09-30.18 22.55-42 6.46-11.82 18.03-32.52 25.71-46 7.69-13.48 20.86-35.98 29.28-50 8.41-14.02 22.06-36.3 30.32-49.5 8.27-13.2 22.85-35.93 32.41-50.5 9.56-14.57 18.14-27.24 19.07-28.14 0.93-0.9 10.24-5.46 20.69-10.13 10.45-4.67 29.58-12.99 42.5-18.49 12.92-5.49 33.85-14.15 46.5-19.23 12.65-5.08 33.13-13.06 45.5-17.73 12.38-4.67 33.08-12.21 46-16.77 12.92-4.55 36.55-12.56 52.5-17.8 15.95-5.24 38-12.23 49-15.55 11-3.31 29.45-8.71 41-12 11.55-3.3 28.65-8.02 38-10.51 9.35-2.49 25.1-6.56 35-9.04 9.9-2.48 25.88-6.35 35.5-8.6 9.63-2.24 28.75-6.5 42.5-9.44 13.75-2.95 35.8-7.42 49-9.94 13.2-2.51 28.5-5.43 34-6.49 5.5-1.05 10.9-1.97 12-2.03zm-109.5 920.84c-5.77 1.11-15.34 3.37-21.25 5.03-5.91 1.66-15.36 4.84-21 7.07-5.64 2.23-16.1 7.1-23.25 10.81-7.15 3.71-17.27 9.59-22.5 13.06-5.23 3.48-13.77 9.72-19 13.88-5.23 4.16-14.93 13-21.57 19.63-6.63 6.64-15.48 16.34-19.67 21.57-4.18 5.22-11.49 15.35-16.25 22.5-4.76 7.15-12.64 21.1-17.52 31-4.88 9.9-10.43 22.28-12.35 27.5-1.92 5.22-5.05 14.67-6.96 21-1.91 6.32-4.63 16.67-6.04 23-1.41 6.32-3.48 18.47-4.61 27-1.12 8.53-2.32 22.92-2.66 32-0.34 9.32-0.12 22.81 0.51 31 0.62 7.97 1.81 19.22 2.66 25 0.84 5.78 2.69 15.9 4.11 22.5 1.42 6.6 4.15 17.17 6.07 23.5 1.92 6.32 5.43 16.45 7.79 22.5 2.36 6.05 5.85 14.37 7.76 18.5 1.9 4.12 6.06 12.22 9.25 18 3.19 5.78 8.94 15.22 12.79 21 3.84 5.78 9.96 14.32 13.59 19 3.63 4.67 12 14.07 18.6 20.88 6.6 6.81 16.27 15.97 21.5 20.36 5.23 4.39 15.35 11.87 22.5 16.63 7.15 4.77 17.5 10.98 23 13.81 5.5 2.84 14.95 7.18 21 9.66 6.05 2.47 15.5 5.83 21 7.47 5.5 1.63 14.73 3.9 20.5 5.05 5.77 1.15 14.55 2.58 19.5 3.17 4.95 0.6 16.65 1.07 26 1.07 9.63-0.01 22.2-0.7 29-1.6 6.6-0.86 17.17-2.73 23.5-4.15 6.33-1.41 16.67-4.36 23-6.54 6.33-2.19 18.7-7.49 27.5-11.78 8.8-4.29 20.72-10.92 26.5-14.75 5.78-3.82 14.1-9.8 18.5-13.28 4.4-3.49 11.55-9.52 15.9-13.42 4.34-3.89 12.45-12.26 18.01-18.58 5.57-6.33 13.55-16.22 17.75-22 4.19-5.78 10.23-14.78 13.4-20 3.18-5.22 8.98-16.03 12.89-24 3.91-7.97 8.96-19.45 11.23-25.5 2.27-6.05 5.7-16.4 7.63-23 1.93-6.6 4.67-17.63 6.09-24.5 1.43-6.88 3.3-17.68 4.16-24 0.89-6.49 1.81-22.61 2.11-37 0.41-19.69 0.16-29.03-1.1-41-0.9-8.53-2.94-22.03-4.55-30-1.6-7.97-4.54-19.9-6.54-26.5-2-6.6-5.21-16.28-7.14-21.5-1.93-5.22-7.04-16.7-11.34-25.5-4.31-8.8-11.14-21.18-15.18-27.5-4.04-6.33-10.93-16.23-15.32-22-4.38-5.78-14.72-17.28-22.98-25.58-8.26-8.29-18.85-18.02-23.52-21.62-4.67-3.6-12.78-9.38-18-12.86-5.22-3.47-14.45-8.9-20.5-12.07-6.05-3.16-14.6-7.29-19-9.18-4.4-1.88-12.95-5.05-19-7.04-6.05-1.98-14.83-4.51-19.5-5.6-4.67-1.09-13-2.71-18.5-3.59-6.03-0.97-18.34-1.75-31-1.96-11.55-0.2-24.6 0.05-29 0.54-4.4 0.5-12.73 1.81-18.5 2.91zm956 0c-5.78 1.11-15.34 3.37-21.25 5.03-5.91 1.66-15.36 4.84-21 7.07-5.64 2.23-16.1 7.1-23.25 10.81-7.15 3.71-17.05 9.41-22 12.68-4.95 3.26-13.5 9.48-19 13.83-5.5 4.35-15.64 13.58-22.54 20.52-6.89 6.94-15.58 16.43-19.31 21.11-3.72 4.67-10.54 14.12-15.14 21-4.61 6.87-11.74 19.03-15.86 27-4.12 7.97-9.17 18.55-11.21 23.5-2.05 4.95-5.49 14.17-7.65 20.5-2.16 6.32-5.47 17.8-7.35 25.5-1.89 7.7-4.34 19.85-5.45 27-1.11 7.15-2.55 21.55-3.2 32-0.92 14.69-0.92 22.97 0 36.5 0.66 9.62 2.07 23.12 3.14 30 1.07 6.87 3.12 17.45 4.54 23.5 1.43 6.05 4.2 16.17 6.17 22.5 1.97 6.32 5.37 16 7.55 21.5 2.18 5.5 6.61 15.4 9.84 22 3.24 6.6 8.94 17.07 12.68 23.26 3.73 6.19 10.84 16.76 15.79 23.5 5.89 8.01 14.88 18.15 26 29.33 10.89 10.95 21.13 20.14 28.5 25.58 6.33 4.68 15.55 10.99 20.5 14.02 4.95 3.04 12.83 7.45 17.5 9.8 4.67 2.35 13.22 6.2 19 8.56 5.78 2.36 15 5.62 20.5 7.26 5.5 1.63 14.72 3.9 20.5 5.05 5.78 1.15 14.55 2.58 19.5 3.17 4.95 0.59 16.42 1.07 25.5 1.07 9.08-0.01 21-0.51 26.5-1.12 5.5-0.62 15.17-2.2 21.5-3.52 6.33-1.32 15.78-3.72 21-5.34 5.22-1.61 12.2-3.92 15.5-5.13 3.3-1.21 12.3-5.27 20-9.01 7.7-3.74 19.63-10.55 26.51-15.14 6.89-4.59 16.11-11.25 20.5-14.82 4.4-3.56 12.88-11.21 18.86-17 5.98-5.78 15.22-15.92 20.53-22.52 5.32-6.6 12.64-16.5 16.26-22 3.62-5.5 9.1-14.5 12.18-20 3.07-5.5 7.8-14.95 10.5-21 2.7-6.05 6.59-15.5 8.64-21 2.05-5.5 5.21-15.18 7.03-21.5 1.82-6.33 4.47-17.13 5.9-24 1.42-6.88 3.28-17.68 4.14-24 0.86-6.33 1.83-22.3 2.15-35.5 0.38-15.43 0.16-28.64-0.61-37-0.66-7.15-1.87-17.28-2.69-22.5-0.82-5.22-2.65-14.68-4.06-21-1.4-6.33-4.59-17.8-7.07-25.5-2.48-7.7-6.73-19.18-9.44-25.5-2.71-6.33-7.31-16-10.22-21.5-2.91-5.5-7.93-14.28-11.16-19.5-3.23-5.22-9.92-14.9-14.86-21.5-5.33-7.13-15.29-18.31-24.53-27.56-9.35-9.34-20.15-18.95-27.06-24.06-6.32-4.68-14.87-10.66-19-13.29-4.12-2.62-14.25-8.08-22.5-12.13-8.25-4.05-20.85-9.34-28-11.77-7.15-2.43-17.05-5.37-22-6.52-4.95-1.16-13.5-2.83-19-3.71-6.05-0.97-18.3-1.75-31-1.96-11.55-0.2-24.6 0.05-29 0.54-4.4 0.5-12.72 1.81-18.5 2.91z"/>
</svg>