<svg version="1.2" xmlns="http://www.w3.org/2000/svg" viewBox="0 0 98 96" width="98" height="96"><defs><clipPath clipPathUnits="userSpaceOnUse" id="cp1"><path d="m0 0h98v96h-98z"/></clipPath></defs><style>.a{fill:#a69076}</style><g clip-path="url(#cp1)"><path class="a" d="m33.5 2c-3.3 1.1-8.5 3.6-11.5 5.7-3 2-7.2 5.5-9.3 7.7-2.1 2.3-5.1 6.3-6.7 9.1-1.5 2.8-3.5 7.5-4.4 10.5-0.9 3.1-1.6 9.2-1.6 14q0 8.5 1.9 15c1.1 3.6 3.5 8.8 5.2 11.5 1.8 2.8 5.5 7.3 8.4 10 2.8 2.8 7.6 6.1 10.6 7.3 3.5 1.6 6.4 2.2 8.2 1.8 2.5-0.6 2.7-0.9 2.7-5.8v-5.3c-5.9 0.6-8.7 0.1-10.5-0.9-1.6-0.8-4.3-3.9-6-6.8-1.6-2.8-3.8-5.3-4.7-5.5-1-0.2-1.6-0.8-1.3-1.3 0.3-0.5 1.6-1 3-1 1.6 0 4.1 1.6 7 4.5 2.9 2.9 5.4 4.5 7 4.5 1.5 0 4.2-1.5 6.6-3.8l4.1-3.7c-7.5-2.4-11.2-4-12.9-5.3-1.8-1.2-4.5-4.3-6-7-2.1-3.6-2.7-6-2.6-10.2 0-3.4 0.8-7 2.1-9.5 1.2-2.3 1.8-5 1.5-6.5-0.3-1.4-0.3-4.2 0.1-6.3 0.6-3.4 0.8-3.7 3.4-3.1 1.5 0.4 4.2 1.5 6 2.5 2.6 1.5 3.8 1.7 6.5 0.9 1.7-0.6 5.7-1 8.7-1 3 0 7 0.4 8.8 1 2.6 0.8 3.8 0.6 6.5-0.9 1.7-1 4.4-2.1 6-2.5 2.4-0.5 2.8-0.3 3.3 2.6 0.3 1.8 0.3 4.7-0.1 6.3-0.4 2.2 0 4.1 1.6 7 1.6 2.8 2.2 5.7 2.2 9.5 0 3.9-0.7 6.8-2.4 9.8-1.4 2.5-4.3 5.6-6.9 7.3-2.5 1.6-6.2 3.4-8.2 3.9l-3.8 1c4.7 7 5.1 8.6 5 15 0 4.5 0.5 8.3 1.2 9.4 1 1.5 2.1 1.7 5.1 1.2 2-0.3 6.5-2.5 9.9-4.9 3.3-2.3 8.2-6.9 10.8-10.2 2.5-3.3 5.7-8.7 7-12 1.6-4.2 2.5-8.8 2.8-15.5 0.3-7.1 0-11-1.3-15.5-0.9-3.3-3.1-8.7-4.8-11.9-1.8-3.2-5.9-8.4-9.2-11.5-3.3-3.1-8-6.6-10.5-7.7-2.5-1.2-6.6-2.9-9.2-3.8-3.1-1-8-1.6-14-1.5-6.3 0-11.2 0.6-15.3 1.9z"/></g></svg>