<svg version="1.2" xmlns="http://www.w3.org/2000/svg" viewBox="0 0 780 779" width="780" height="780">
	<style>
		.s0 { fill: #a69076 } 
	</style>
	<path id="Path 0" fill-rule="evenodd" class="s0" d="m389 0.08c303.77-0.04 341.2 0.12 347 1.5 3.58 0.85 9.61 3.2 13.42 5.23 3.8 2.03 9.54 6.16 12.75 9.19 3.2 3.02 7.42 8.2 9.37 11.5 1.95 3.3 4.54 9.15 7.96 20v684l-2.22 7c-1.22 3.85-3.92 9.87-6 13.37-2.08 3.5-6.27 8.68-9.31 11.5-3.04 2.82-8.66 6.79-12.5 8.82-3.83 2.03-9.89 4.38-13.47 5.23-5.8 1.38-43.34 1.55-346.5 1.57-301.62 0.02-340.68-0.15-346-1.51-3.3-0.84-8.92-2.94-12.5-4.67-4.45-2.14-8.9-5.54-14.09-10.72-5.14-5.14-8.6-9.69-10.75-14.09-1.75-3.58-3.84-9.65-4.65-13.5-1.28-6.09-1.48-50.81-1.48-345 0-294.19 0.2-338.91 1.48-345 0.81-3.85 2.9-9.92 4.65-13.5 2.16-4.44 5.58-8.89 10.75-14.04 5.11-5.08 9.71-8.57 14.09-10.7 3.58-1.74 8.98-3.83 12-4.64 4.81-1.3 48.06-1.49 346-1.54zm-240 112.91c-3.03 1.2-8.62 4.28-12.43 6.85-3.82 2.56-9.35 7.36-12.29 10.66-2.95 3.3-7.14 9.6-9.31 14-2.18 4.4-4.71 10.93-5.62 14.5-0.94 3.68-1.66 10.4-1.66 15.5 0 5.12 0.72 11.8 1.67 15.5 0.91 3.57 3.21 9.65 5.11 13.5 1.89 3.85 5.71 9.81 8.49 13.25 2.77 3.44 7.85 8.24 11.29 10.68 3.44 2.44 9.18 5.77 12.75 7.41 3.57 1.64 10.32 3.75 15 4.7 5.98 1.21 10.72 1.54 16 1.11 4.13-0.33 10.65-1.56 14.5-2.72 3.85-1.16 9.93-3.72 13.5-5.68 3.9-2.14 9.72-6.81 14.55-11.66q8.04-8.09 11.7-15.09c2.01-3.85 4.58-10.6 5.71-15 1.24-4.82 2.06-11.18 2.06-16 0-4.82-0.82-11.18-2.06-16-1.13-4.4-3.61-10.93-5.5-14.5-1.9-3.57-5.36-8.82-7.7-11.66-2.34-2.83-6.51-7.02-9.26-9.3-2.75-2.27-8.6-5.93-13-8.11-4.4-2.18-11.15-4.63-15-5.43-3.85-0.81-10.15-1.44-14-1.4-3.85 0.03-9.7 0.65-13 1.38-3.3 0.73-8.47 2.3-11.5 3.51zm347 173.58c-4.12 0.92-11.32 3.01-16 4.65-4.68 1.64-12.1 4.84-16.5 7.12-4.4 2.28-11.37 6.67-15.5 9.74-4.12 3.08-10.89 9.16-15.02 13.51-4.14 4.35-9.54 10.97-12 14.7-2.47 3.73-5.04 6.77-5.73 6.75-0.97-0.03-1.25-5.73-1.25-25.04v-25h-110v370h115c0-166.33 0.37-203.45 1.11-210.25 0.61-5.64 2.19-14.52 3.52-19.75 1.33-5.23 4.05-12.88 6.05-17 2.58-5.35 5.65-9.55 10.72-14.66 4.93-4.97 9.09-8.09 13.6-10.21 3.57-1.68 9.2-3.77 12.5-4.66 3.3-0.88 11.4-1.84 18-2.14 8.89-0.39 13.94-0.12 19.5 1.06 4.13 0.88 10.42 3.05 14 4.82 3.88 1.93 8.66 5.46 11.86 8.76 3.38 3.49 6.78 8.48 9.21 13.53 2.12 4.4 4.76 11.82 5.86 16.5 1.1 4.68 2.47 13.45 3.04 19.5 0.63 6.72 1.03 50.57 1.03 112.75v101.75h114c-0.59-234.06-0.8-247.66-2.35-258-0.96-6.32-2.67-16-3.8-21.5-1.14-5.5-3.38-14.05-4.98-19-1.6-4.95-5.36-13.95-8.35-20-3.06-6.17-8.32-14.62-11.98-19.25-3.6-4.54-9.58-10.76-13.29-13.84-3.71-3.07-10.13-7.58-14.25-10.02-4.12-2.43-11.1-5.82-15.5-7.52-4.4-1.69-11.15-3.89-15-4.89-3.85-0.99-11.73-2.48-17.5-3.31-5.77-0.83-16.13-1.73-23-2-6.87-0.27-16.33-0.1-21 0.38-4.68 0.47-11.88 1.61-16 2.52zm-379 376.43h114v-370h-114z"/>
</svg>